STARTFONT 2.1
COMMENT
COMMENT Converted from OpenType font "Okuda-A5PL.ttf" by "otf2bdf 3.0".
COMMENT
FONT -FreeType-Okuda-Medium-R-Normal--30-220-100-100-P-86-ISO10646-1
SIZE 22 100 100
FONTBOUNDINGBOX 26 32 -2 -5
STARTPROPERTIES 19
FOUNDRY "FreeType"
FAMILY_NAME "Okuda"
WEIGHT_NAME "Medium"
SLANT "R"
SETWIDTH_NAME "Normal"
ADD_STYLE_NAME ""
PIXEL_SIZE 30
POINT_SIZE 220
RESOLUTION_X 100
RESOLUTION_Y 100
SPACING "P"
AVERAGE_WIDTH 86
CHARSET_REGISTRY "ISO10646"
CHARSET_ENCODING "1"
FONT_ASCENT 27
FONT_DESCENT 5
COPYRIGHT "Okuda © (Neale Davidson). 2011-2014. All Rights Reserved"
_OTF_FONTFILE "Okuda-A5PL.ttf"
_OTF_PSNAME "Okuda"
ENDPROPERTIES
CHARS 242
STARTCHAR 0000
ENCODING 0
SWIDTH 0 0
DWIDTH 0 0
BBX 0 0 0 0
BITMAP
ENDCHAR
STARTCHAR 001D
ENCODING 29
SWIDTH 0 0
DWIDTH 0 0
BBX 0 0 0 0
BITMAP
ENDCHAR
STARTCHAR 0020
ENCODING 32
SWIDTH 229 0
DWIDTH 7 0
BBX 0 0 0 0
BITMAP
ENDCHAR
STARTCHAR 0021
ENCODING 33
SWIDTH 130 0
DWIDTH 4 0
BBX 2 20 1 0
BITMAP
C0
C0
C0
C0
C0
C0
C0
C0
C0
C0
C0
C0
C0
C0
C0
C0
00
00
C0
C0
ENDCHAR
STARTCHAR 0022
ENCODING 34
SWIDTH 261 0
DWIDTH 8 0
BBX 6 4 1 18
BITMAP
6C
DC
D8
D8
ENDCHAR
STARTCHAR 0023
ENCODING 35
SWIDTH 425 0
DWIDTH 13 0
BBX 11 11 1 7
BITMAP
3300
3300
FFE0
FFE0
3300
3300
3300
FFE0
FFE0
3300
3300
ENDCHAR
STARTCHAR 0024
ENCODING 36
SWIDTH 261 0
DWIDTH 8 0
BBX 7 20 1 0
BITMAP
30
78
FC
CE
CE
C0
C0
E0
70
78
3C
1C
0E
0E
0E
CE
CE
FC
78
30
ENDCHAR
STARTCHAR 0025
ENCODING 37
SWIDTH 458 0
DWIDTH 14 0
BBX 12 20 1 0
BITMAP
7C70
FE60
EEE0
C6C0
C7C0
C780
C780
FF00
7F00
0600
0FE0
0FF0
1F70
1E30
3E30
3630
3630
7770
67F0
E3E0
ENDCHAR
STARTCHAR 0026
ENCODING 38
SWIDTH 294 0
DWIDTH 9 0
BBX 8 20 1 0
BITMAP
70
F0
E0
C0
C0
C6
C6
C6
7F
7F
E6
C6
C6
C6
C6
C6
C6
EE
FC
7C
ENDCHAR
STARTCHAR 0027
ENCODING 39
SWIDTH 130 0
DWIDTH 4 0
BBX 3 4 1 18
BITMAP
60
C0
C0
C0
ENDCHAR
STARTCHAR 0028
ENCODING 40
SWIDTH 229 0
DWIDTH 7 0
BBX 5 25 1 -2
BITMAP
18
38
30
30
70
60
60
E0
E0
C0
C0
C0
C0
C0
C0
C0
C0
E0
E0
60
60
70
30
38
18
ENDCHAR
STARTCHAR 0029
ENCODING 41
SWIDTH 229 0
DWIDTH 7 0
BBX 5 25 1 -2
BITMAP
C0
E0
60
70
30
30
38
18
18
18
18
18
18
18
18
18
18
18
38
38
30
30
70
60
E0
ENDCHAR
STARTCHAR 002A
ENCODING 42
SWIDTH 818 0
DWIDTH 25 0
BBX 23 23 1 -3
BITMAP
001000
003000
002800
005800
005400
009400
009200
031180
0D1260
313918
423904
423904
822882
840082
840082
841E82
4C2144
28C0C8
1900D0
0A00E0
0DFF40
180000
080000
ENDCHAR
STARTCHAR 002B
ENCODING 43
SWIDTH 294 0
DWIDTH 9 0
BBX 7 7 1 8
BITMAP
30
30
30
FE
FE
30
30
ENDCHAR
STARTCHAR 002C
ENCODING 44
SWIDTH 130 0
DWIDTH 4 0
BBX 3 4 1 -1
BITMAP
60
C0
C0
C0
ENDCHAR
STARTCHAR 002D
ENCODING 45
SWIDTH 294 0
DWIDTH 9 0
BBX 7 2 1 9
BITMAP
FE
FE
ENDCHAR
STARTCHAR 002E
ENCODING 46
SWIDTH 130 0
DWIDTH 4 0
BBX 2 2 1 0
BITMAP
C0
C0
ENDCHAR
STARTCHAR 002F
ENCODING 47
SWIDTH 261 0
DWIDTH 8 0
BBX 6 20 1 0
BITMAP
0C
0C
0C
1C
18
18
18
18
38
30
30
30
70
60
60
60
60
E0
C0
C0
ENDCHAR
STARTCHAR 0030
ENCODING 48
SWIDTH 294 0
DWIDTH 9 0
BBX 7 20 1 0
BITMAP
7C
FE
EE
C6
C6
C6
C6
C6
C6
C6
C6
C6
C6
C6
C6
C6
C6
EE
FE
7C
ENDCHAR
STARTCHAR 0031
ENCODING 49
SWIDTH 163 0
DWIDTH 5 0
BBX 4 20 0 0
BITMAP
30
70
F0
F0
30
30
30
30
30
30
30
30
30
30
30
30
30
30
30
30
ENDCHAR
STARTCHAR 0032
ENCODING 50
SWIDTH 294 0
DWIDTH 9 0
BBX 7 20 1 0
BITMAP
7C
FE
EE
C6
C6
C6
06
06
0E
0C
1C
38
70
60
E0
C0
C0
C0
FE
FE
ENDCHAR
STARTCHAR 0033
ENCODING 51
SWIDTH 294 0
DWIDTH 9 0
BBX 7 20 1 0
BITMAP
7C
FE
EE
C6
C6
06
06
06
3C
3C
0E
06
06
06
C6
C6
C6
EE
FC
7C
ENDCHAR
STARTCHAR 0034
ENCODING 52
SWIDTH 327 0
DWIDTH 10 0
BBX 10 20 0 0
BITMAP
0300
0700
0700
0F00
0F00
0F00
1B00
1B00
3B00
3300
7300
6300
6300
FFC0
FFC0
0300
0300
0300
0300
0300
ENDCHAR
STARTCHAR 0035
ENCODING 53
SWIDTH 294 0
DWIDTH 9 0
BBX 7 20 1 0
BITMAP
FE
FE
C0
C0
C0
C0
C0
FC
FE
EE
06
06
06
06
C6
C6
C6
EE
FE
7C
ENDCHAR
STARTCHAR 0036
ENCODING 54
SWIDTH 294 0
DWIDTH 9 0
BBX 7 20 1 0
BITMAP
7C
FE
EE
C6
C6
C0
C0
FC
FE
EE
C6
C6
C6
C6
C6
C6
C6
EE
FE
7C
ENDCHAR
STARTCHAR 0037
ENCODING 55
SWIDTH 327 0
DWIDTH 10 0
BBX 8 20 1 0
BITMAP
FF
FF
03
07
07
06
06
0E
0E
0C
0C
1C
1C
18
18
38
38
30
30
30
ENDCHAR
STARTCHAR 0038
ENCODING 56
SWIDTH 294 0
DWIDTH 9 0
BBX 7 20 1 0
BITMAP
7C
FE
EE
C6
C6
C6
C6
C6
FE
7C
EE
C6
C6
C6
C6
C6
C6
EE
FE
7C
ENDCHAR
STARTCHAR 0039
ENCODING 57
SWIDTH 294 0
DWIDTH 9 0
BBX 7 20 1 0
BITMAP
7C
FE
EE
C6
C6
C6
C6
C6
C6
C6
FE
7E
06
06
C6
C6
C6
EE
FE
7C
ENDCHAR
STARTCHAR 003A
ENCODING 58
SWIDTH 130 0
DWIDTH 4 0
BBX 2 11 1 0
BITMAP
C0
C0
00
00
00
00
00
00
00
C0
C0
ENDCHAR
STARTCHAR 003B
ENCODING 59
SWIDTH 130 0
DWIDTH 4 0
BBX 3 13 1 -1
BITMAP
60
60
60
00
00
00
00
00
00
00
E0
C0
C0
ENDCHAR
STARTCHAR 003C
ENCODING 60
SWIDTH 294 0
DWIDTH 9 0
BBX 7 15 1 3
BITMAP
0E
0C
1C
38
30
70
E0
C0
E0
70
30
38
1C
0C
0E
ENDCHAR
STARTCHAR 003D
ENCODING 61
SWIDTH 294 0
DWIDTH 9 0
BBX 7 7 1 7
BITMAP
FE
FE
00
00
00
FE
FE
ENDCHAR
STARTCHAR 003E
ENCODING 62
SWIDTH 294 0
DWIDTH 9 0
BBX 7 15 1 3
BITMAP
E0
60
70
38
18
1C
0E
06
0E
1C
18
38
70
60
E0
ENDCHAR
STARTCHAR 003F
ENCODING 63
SWIDTH 261 0
DWIDTH 8 0
BBX 7 20 1 0
BITMAP
78
FC
EE
CE
CE
CE
0E
0E
0E
0C
1C
18
38
30
30
30
00
00
30
30
ENDCHAR
STARTCHAR 0040
ENCODING 64
SWIDTH 392 0
DWIDTH 12 0
BBX 10 18 1 1
BITMAP
7F80
FF80
E1C0
C0C0
C1C0
CFC0
DFC0
D8C0
D8C0
D8C0
D8C0
D8C0
DDC0
DFC0
CEC0
E000
FF80
7F80
ENDCHAR
STARTCHAR 0041
ENCODING 65
SWIDTH 294 0
DWIDTH 9 0
BBX 9 20 0 0
BITMAP
1C00
1C00
1C00
1C00
3E00
3E00
3E00
3E00
3600
3600
3600
7600
7700
7F00
7F00
7700
6300
6300
6300
E380
ENDCHAR
STARTCHAR 0042
ENCODING 66
SWIDTH 294 0
DWIDTH 9 0
BBX 7 20 1 0
BITMAP
FC
FE
C6
C6
C6
C6
C6
C6
C6
FC
FE
C6
C6
C6
C6
C6
C6
C6
FE
FC
ENDCHAR
STARTCHAR 0043
ENCODING 67
SWIDTH 294 0
DWIDTH 9 0
BBX 7 20 1 0
BITMAP
7C
FE
E6
C6
C6
C0
C0
C0
C0
C0
C0
C0
C0
C0
C0
C6
C6
C6
FE
7C
ENDCHAR
STARTCHAR 0044
ENCODING 68
SWIDTH 294 0
DWIDTH 9 0
BBX 7 20 1 0
BITMAP
FC
FE
C6
C6
C6
C6
C6
C6
C6
C6
C6
C6
C6
C6
C6
C6
C6
C6
FE
FC
ENDCHAR
STARTCHAR 0045
ENCODING 69
SWIDTH 294 0
DWIDTH 9 0
BBX 8 20 1 0
BITMAP
FF
FF
C0
C0
C0
C0
C0
C0
C0
FC
FC
C0
C0
C0
C0
C0
C0
C0
FF
FF
ENDCHAR
STARTCHAR 0046
ENCODING 70
SWIDTH 294 0
DWIDTH 9 0
BBX 8 20 1 0
BITMAP
FF
FF
C0
C0
C0
C0
C0
C0
C0
FC
FC
C0
C0
C0
C0
C0
C0
C0
C0
C0
ENDCHAR
STARTCHAR 0047
ENCODING 71
SWIDTH 294 0
DWIDTH 9 0
BBX 7 20 1 0
BITMAP
7C
FE
E6
C6
C6
C0
C0
C0
C0
C0
CE
CE
C6
C6
C6
C6
C6
C6
FE
7E
ENDCHAR
STARTCHAR 0048
ENCODING 72
SWIDTH 294 0
DWIDTH 9 0
BBX 7 20 1 0
BITMAP
C6
C6
C6
C6
C6
C6
C6
C6
FE
FE
C6
C6
C6
C6
C6
C6
C6
C6
C6
C6
ENDCHAR
STARTCHAR 0049
ENCODING 73
SWIDTH 130 0
DWIDTH 4 0
BBX 2 20 1 0
BITMAP
C0
C0
C0
C0
C0
C0
C0
C0
C0
C0
C0
C0
C0
C0
C0
C0
C0
C0
C0
C0
ENDCHAR
STARTCHAR 004A
ENCODING 74
SWIDTH 294 0
DWIDTH 9 0
BBX 7 20 1 0
BITMAP
06
06
06
06
06
06
06
06
06
06
06
06
06
06
06
C6
C6
E6
FE
7C
ENDCHAR
STARTCHAR 004B
ENCODING 75
SWIDTH 294 0
DWIDTH 9 0
BBX 8 20 1 0
BITMAP
C7
C6
CE
CC
DC
F8
F8
F0
E0
E0
F0
F0
F8
F8
DC
DC
CC
CE
C6
C7
ENDCHAR
STARTCHAR 004C
ENCODING 76
SWIDTH 261 0
DWIDTH 8 0
BBX 7 20 1 0
BITMAP
C0
C0
C0
C0
C0
C0
C0
C0
C0
C0
C0
C0
C0
C0
C0
C0
C0
C0
FE
FE
ENDCHAR
STARTCHAR 004D
ENCODING 77
SWIDTH 425 0
DWIDTH 13 0
BBX 11 20 1 0
BITMAP
E0E0
E0E0
E0E0
E0E0
F0E0
F1E0
F1E0
F1E0
F9E0
DBE0
DB60
DB60
DF60
DF60
CF60
CF60
CE60
CE60
CE60
CE60
ENDCHAR
STARTCHAR 004E
ENCODING 78
SWIDTH 327 0
DWIDTH 10 0
BBX 8 20 1 0
BITMAP
E3
E3
E3
F3
F3
F3
F3
F3
DB
DB
DB
DB
CF
CF
CF
CF
C7
C7
C7
C7
ENDCHAR
STARTCHAR 004F
ENCODING 79
SWIDTH 294 0
DWIDTH 9 0
BBX 7 20 1 0
BITMAP
7C
FE
E6
C6
C6
C6
C6
C6
C6
C6
C6
C6
C6
C6
C6
C6
C6
C6
FE
7C
ENDCHAR
STARTCHAR 0050
ENCODING 80
SWIDTH 294 0
DWIDTH 9 0
BBX 7 20 1 0
BITMAP
FC
FE
C6
C6
C6
C6
C6
C6
C6
C6
FE
FC
C0
C0
C0
C0
C0
C0
C0
C0
ENDCHAR
STARTCHAR 0051
ENCODING 81
SWIDTH 294 0
DWIDTH 9 0
BBX 7 23 1 -3
BITMAP
7C
FE
C6
C6
C6
C6
C6
C6
C6
C6
C6
C6
C6
C6
C6
C6
C6
C6
FE
7C
18
1E
1E
ENDCHAR
STARTCHAR 0052
ENCODING 82
SWIDTH 294 0
DWIDTH 9 0
BBX 7 20 1 0
BITMAP
FC
FE
CE
C6
C6
C6
C6
C6
C6
CE
FC
FC
C6
C6
C6
C6
C6
C6
C6
C6
ENDCHAR
STARTCHAR 0053
ENCODING 83
SWIDTH 294 0
DWIDTH 9 0
BBX 7 20 1 0
BITMAP
7C
FE
C6
C6
C6
C0
C0
E0
70
38
1C
0E
06
06
06
C6
C6
C6
FE
7C
ENDCHAR
STARTCHAR 0054
ENCODING 84
SWIDTH 327 0
DWIDTH 10 0
BBX 8 20 1 0
BITMAP
FF
FF
18
18
18
18
18
18
18
18
18
18
18
18
18
18
18
18
18
18
ENDCHAR
STARTCHAR 0055
ENCODING 85
SWIDTH 294 0
DWIDTH 9 0
BBX 7 20 1 0
BITMAP
C6
C6
C6
C6
C6
C6
C6
C6
C6
C6
C6
C6
C6
C6
C6
C6
C6
E6
FE
7C
ENDCHAR
STARTCHAR 0056
ENCODING 86
SWIDTH 294 0
DWIDTH 9 0
BBX 9 20 0 0
BITMAP
E380
6300
6300
6300
7700
7700
7700
7700
7600
3600
3600
3E00
3E00
3E00
3E00
3E00
1C00
1C00
1C00
1C00
ENDCHAR
STARTCHAR 0057
ENCODING 87
SWIDTH 490 0
DWIDTH 15 0
BBX 14 20 0 0
BITMAP
E39C
639C
639C
639C
779C
7798
7798
77D8
77F8
37F8
37F8
3FF8
3EF8
3EF0
3EF0
3EF0
1CF0
1CF0
1CF0
1C70
ENDCHAR
STARTCHAR 0058
ENCODING 88
SWIDTH 294 0
DWIDTH 9 0
BBX 7 20 1 0
BITMAP
C6
C6
EE
EE
6C
7C
7C
7C
38
38
38
38
78
7C
7C
6C
EE
EE
C6
C6
ENDCHAR
STARTCHAR 0059
ENCODING 89
SWIDTH 294 0
DWIDTH 9 0
BBX 8 20 0 0
BITMAP
E7
E7
67
76
7E
3E
3C
3C
3C
1C
18
18
18
18
18
18
18
18
18
18
ENDCHAR
STARTCHAR 005A
ENCODING 90
SWIDTH 294 0
DWIDTH 9 0
BBX 7 20 1 0
BITMAP
FE
FE
06
0E
0C
0C
0C
18
18
18
30
30
30
60
60
60
E0
C0
FE
FE
ENDCHAR
STARTCHAR 005B
ENCODING 91
SWIDTH 229 0
DWIDTH 7 0
BBX 5 24 1 -2
BITMAP
F8
F8
C0
C0
C0
C0
C0
C0
C0
C0
C0
C0
C0
C0
C0
C0
C0
C0
C0
C0
C0
C0
F8
F8
ENDCHAR
STARTCHAR 005C
ENCODING 92
SWIDTH 261 0
DWIDTH 8 0
BBX 6 20 1 0
BITMAP
C0
C0
E0
60
60
60
60
70
30
30
30
38
18
18
18
18
1C
0C
0C
0C
ENDCHAR
STARTCHAR 005D
ENCODING 93
SWIDTH 229 0
DWIDTH 7 0
BBX 5 24 1 -2
BITMAP
F8
F8
18
18
18
18
18
18
18
18
18
18
18
18
18
18
18
18
18
18
18
18
F8
F8
ENDCHAR
STARTCHAR 005E
ENCODING 94
SWIDTH 294 0
DWIDTH 9 0
BBX 7 3 1 22
BITMAP
38
6C
C6
ENDCHAR
STARTCHAR 005F
ENCODING 95
SWIDTH 327 0
DWIDTH 10 0
BBX 10 2 1 -4
BITMAP
FFC0
FFC0
ENDCHAR
STARTCHAR 0060
ENCODING 96
SWIDTH 294 0
DWIDTH 9 0
BBX 7 4 1 22
BITMAP
30
F8
3E
04
ENDCHAR
STARTCHAR 0061
ENCODING 97
SWIDTH 294 0
DWIDTH 9 0
BBX 7 16 1 0
BITMAP
7C
FE
EE
C6
C6
0E
7E
7E
E6
C6
C6
C6
C6
EE
FE
7E
ENDCHAR
STARTCHAR 0062
ENCODING 98
SWIDTH 294 0
DWIDTH 9 0
BBX 7 20 1 0
BITMAP
C0
C0
C0
C0
DC
FE
EE
C6
C6
C6
C6
C6
C6
C6
C6
C6
C6
EE
FE
FC
ENDCHAR
STARTCHAR 0063
ENCODING 99
SWIDTH 294 0
DWIDTH 9 0
BBX 7 16 1 0
BITMAP
7C
FE
EE
C6
C6
C0
C0
C0
C0
C0
C0
C6
C6
EE
FE
7C
ENDCHAR
STARTCHAR 0064
ENCODING 100
SWIDTH 294 0
DWIDTH 9 0
BBX 7 20 1 0
BITMAP
06
06
06
06
76
FE
EE
C6
C6
C6
C6
C6
C6
C6
C6
C6
C6
EE
FE
7E
ENDCHAR
STARTCHAR 0065
ENCODING 101
SWIDTH 294 0
DWIDTH 9 0
BBX 7 16 1 0
BITMAP
7C
FE
EE
C6
C6
C6
C6
FE
FE
C0
C6
C6
C6
EE
FE
7C
ENDCHAR
STARTCHAR 0066
ENCODING 102
SWIDTH 229 0
DWIDTH 7 0
BBX 5 20 1 0
BITMAP
18
38
30
30
F8
F8
30
30
30
30
30
30
30
30
30
30
30
30
30
30
ENDCHAR
STARTCHAR 0067
ENCODING 103
SWIDTH 294 0
DWIDTH 9 0
BBX 7 21 1 -5
BITMAP
76
FE
EE
C6
C6
C6
C6
C6
C6
C6
C6
C6
C6
EE
FE
76
06
C6
EE
FC
7C
ENDCHAR
STARTCHAR 0068
ENCODING 104
SWIDTH 294 0
DWIDTH 9 0
BBX 7 20 1 0
BITMAP
C0
C0
C0
C0
DC
FC
EE
C6
C6
C6
C6
C6
C6
C6
C6
C6
C6
C6
C6
C6
ENDCHAR
STARTCHAR 0069
ENCODING 105
SWIDTH 130 0
DWIDTH 4 0
BBX 2 20 1 0
BITMAP
C0
C0
00
00
C0
C0
C0
C0
C0
C0
C0
C0
C0
C0
C0
C0
C0
C0
C0
C0
ENDCHAR
STARTCHAR 006A
ENCODING 106
SWIDTH 196 0
DWIDTH 6 0
BBX 4 24 1 -4
BITMAP
30
30
00
00
30
30
30
30
30
30
30
30
30
30
30
30
30
30
30
30
30
30
F0
F0
ENDCHAR
STARTCHAR 006B
ENCODING 107
SWIDTH 261 0
DWIDTH 8 0
BBX 6 20 1 0
BITMAP
C0
C0
C0
C0
C4
CC
CC
D8
D8
F0
F0
F0
F0
F0
D0
D8
D8
CC
CC
CC
ENDCHAR
STARTCHAR 006C
ENCODING 108
SWIDTH 130 0
DWIDTH 4 0
BBX 2 20 1 0
BITMAP
C0
C0
C0
C0
C0
C0
C0
C0
C0
C0
C0
C0
C0
C0
C0
C0
C0
C0
C0
C0
ENDCHAR
STARTCHAR 006D
ENCODING 109
SWIDTH 458 0
DWIDTH 14 0
BBX 12 16 1 0
BITMAP
FBC0
FFE0
EE70
C630
C630
C630
C630
C630
C630
C630
C630
C630
C630
C630
C630
C630
ENDCHAR
STARTCHAR 006E
ENCODING 110
SWIDTH 294 0
DWIDTH 9 0
BBX 7 16 1 0
BITMAP
FC
FC
EE
C6
C6
C6
C6
C6
C6
C6
C6
C6
C6
C6
C6
C6
ENDCHAR
STARTCHAR 006F
ENCODING 111
SWIDTH 294 0
DWIDTH 9 0
BBX 7 16 1 0
BITMAP
7C
FE
EE
C6
C6
C6
C6
C6
C6
C6
C6
C6
C6
EE
FE
7C
ENDCHAR
STARTCHAR 0070
ENCODING 112
SWIDTH 294 0
DWIDTH 9 0
BBX 7 20 1 -4
BITMAP
FC
FE
EE
C6
C6
C6
C6
C6
C6
C6
C6
C6
C6
EE
FE
DC
C0
C0
C0
C0
ENDCHAR
STARTCHAR 0071
ENCODING 113
SWIDTH 294 0
DWIDTH 9 0
BBX 7 20 1 -4
BITMAP
7E
FE
EE
C6
C6
C6
C6
C6
C6
C6
C6
C6
C6
EE
FE
76
06
06
06
06
ENDCHAR
STARTCHAR 0072
ENCODING 114
SWIDTH 294 0
DWIDTH 9 0
BBX 7 16 1 0
BITMAP
FC
FC
EE
C6
C0
C0
C0
C0
C0
C0
C0
C0
C0
C0
C0
C0
ENDCHAR
STARTCHAR 0073
ENCODING 115
SWIDTH 294 0
DWIDTH 9 0
BBX 7 16 1 0
BITMAP
7C
FE
EE
C6
C6
E0
60
30
18
1C
0E
C6
C6
EE
FE
7C
ENDCHAR
STARTCHAR 0074
ENCODING 116
SWIDTH 229 0
DWIDTH 7 0
BBX 5 20 1 0
BITMAP
60
60
60
60
F8
F8
60
60
60
60
60
60
60
60
60
60
60
70
78
78
ENDCHAR
STARTCHAR 0075
ENCODING 117
SWIDTH 294 0
DWIDTH 9 0
BBX 7 16 1 0
BITMAP
C6
C6
C6
C6
C6
C6
C6
C6
C6
C6
C6
C6
C6
EE
FE
76
ENDCHAR
STARTCHAR 0076
ENCODING 118
SWIDTH 294 0
DWIDTH 9 0
BBX 7 16 1 0
BITMAP
C6
C6
C6
E6
6E
6E
6C
6C
6C
7C
3C
38
38
38
38
38
ENDCHAR
STARTCHAR 0077
ENCODING 119
SWIDTH 425 0
DWIDTH 13 0
BBX 11 16 1 0
BITMAP
CE60
CE60
CEE0
CEC0
EEC0
6EC0
7EC0
7EC0
7EC0
7FC0
7B80
7B80
3B80
3B80
3380
3380
ENDCHAR
STARTCHAR 0078
ENCODING 120
SWIDTH 294 0
DWIDTH 9 0
BBX 7 16 1 0
BITMAP
C6
E6
6E
6C
6C
3C
38
38
38
38
3C
6C
6C
6E
C6
C6
ENDCHAR
STARTCHAR 0079
ENCODING 121
SWIDTH 294 0
DWIDTH 9 0
BBX 7 20 1 -4
BITMAP
C6
C6
E6
66
6E
6E
6C
6C
6C
3C
3C
3C
38
38
38
38
38
30
F0
F0
ENDCHAR
STARTCHAR 007A
ENCODING 122
SWIDTH 294 0
DWIDTH 9 0
BBX 7 16 1 0
BITMAP
FE
FE
06
0E
0C
1C
18
38
38
30
70
60
E0
C0
FE
FE
ENDCHAR
STARTCHAR 007B
ENCODING 123
SWIDTH 261 0
DWIDTH 8 0
BBX 6 24 1 -2
BITMAP
1C
3C
30
30
30
30
30
30
30
30
30
E0
F0
30
30
30
30
30
30
30
30
38
3C
1C
ENDCHAR
STARTCHAR 007C
ENCODING 124
SWIDTH 130 0
DWIDTH 4 0
BBX 2 25 1 -2
BITMAP
C0
C0
C0
C0
C0
C0
C0
C0
C0
C0
C0
C0
C0
C0
C0
C0
C0
C0
C0
C0
C0
C0
C0
C0
C0
ENDCHAR
STARTCHAR 007D
ENCODING 125
SWIDTH 261 0
DWIDTH 8 0
BBX 6 24 1 -2
BITMAP
E0
F0
30
30
30
30
30
30
30
30
38
1C
1C
30
30
30
30
30
30
30
30
30
F0
E0
ENDCHAR
STARTCHAR 007E
ENCODING 126
SWIDTH 327 0
DWIDTH 10 0
BBX 8 3 1 22
BITMAP
7B
FF
CE
ENDCHAR
STARTCHAR 00A0
ENCODING 160
SWIDTH 229 0
DWIDTH 7 0
BBX 0 0 0 0
BITMAP
ENDCHAR
STARTCHAR 00A1
ENCODING 161
SWIDTH 130 0
DWIDTH 4 0
BBX 2 20 1 0
BITMAP
C0
C0
00
00
C0
C0
C0
C0
C0
C0
C0
C0
C0
C0
C0
C0
C0
C0
C0
C0
ENDCHAR
STARTCHAR 00A2
ENCODING 162
SWIDTH 261 0
DWIDTH 8 0
BBX 7 20 1 0
BITMAP
30
30
7C
FC
CE
CE
CE
C0
C0
C0
C0
C0
C0
CE
CE
CE
FC
7C
30
30
ENDCHAR
STARTCHAR 00A3
ENCODING 163
SWIDTH 294 0
DWIDTH 9 0
BBX 7 20 1 0
BITMAP
1E
3E
30
30
30
30
30
30
30
F8
F8
30
30
30
30
30
30
70
FE
FE
ENDCHAR
STARTCHAR 00A4
ENCODING 164
SWIDTH 327 0
DWIDTH 10 0
BBX 7 16 1 3
BITMAP
C6
C6
E6
7E
FE
EE
C6
C6
C6
C6
EE
FE
7C
E6
C6
C6
ENDCHAR
STARTCHAR 00A5
ENCODING 165
SWIDTH 294 0
DWIDTH 9 0
BBX 7 20 1 0
BITMAP
E6
E6
E6
6E
7C
7C
3C
3C
3C
38
FE
FE
18
18
FE
FE
18
18
18
18
ENDCHAR
STARTCHAR 00A6
ENCODING 166
SWIDTH 130 0
DWIDTH 4 0
BBX 2 24 1 -2
BITMAP
C0
C0
C0
C0
C0
C0
C0
C0
C0
C0
C0
00
00
C0
C0
C0
C0
C0
C0
C0
C0
C0
C0
C0
ENDCHAR
STARTCHAR 00A7
ENCODING 167
SWIDTH 294 0
DWIDTH 9 0
BBX 7 24 1 -1
BITMAP
7C
FE
E6
C6
C6
C6
C0
FC
FE
EE
C6
C6
C6
C6
EE
FE
7E
06
C6
C6
C6
E6
FE
7C
ENDCHAR
STARTCHAR 00A8
ENCODING 168
SWIDTH 261 0
DWIDTH 8 0
BBX 6 2 1 22
BITMAP
CC
CC
ENDCHAR
STARTCHAR 00A9
ENCODING 169
SWIDTH 392 0
DWIDTH 12 0
BBX 10 15 1 8
BITMAP
1E00
3700
4180
5D80
9480
94C0
90C0
90C0
90C0
94C0
9480
DD80
4180
2300
1E00
ENDCHAR
STARTCHAR 00AA
ENCODING 170
SWIDTH 818 0
DWIDTH 25 0
BBX 23 22 0 0
BITMAP
7FFFFC
C00006
800002
800002
800002
800002
800002
800002
800002
800002
800002
800002
800002
800002
800002
800002
800002
800002
800002
800002
C00006
7FFFFC
ENDCHAR
STARTCHAR 00AB
ENCODING 171
SWIDTH 425 0
DWIDTH 13 0
BBX 11 15 1 3
BITMAP
0E60
0CE0
1DC0
3980
3380
7700
E600
CE00
E600
7300
3380
3980
1DC0
0CE0
0E60
ENDCHAR
STARTCHAR 00AC
ENCODING 172
SWIDTH 490 0
DWIDTH 15 0
BBX 12 7 2 4
BITMAP
FFF0
0010
0010
0010
0010
0010
0010
ENDCHAR
STARTCHAR 00AD
ENCODING 173
SWIDTH 294 0
DWIDTH 9 0
BBX 7 2 1 9
BITMAP
FE
FE
ENDCHAR
STARTCHAR 00AE
ENCODING 174
SWIDTH 392 0
DWIDTH 12 0
BBX 10 15 1 8
BITMAP
1E00
3700
4180
5D80
9480
94C0
94C0
98C0
94C0
94C0
9480
D580
5580
2300
1E00
ENDCHAR
STARTCHAR 00AF
ENCODING 175
SWIDTH 818 0
DWIDTH 25 0
BBX 23 23 0 0
BITMAP
7FFFFC
C00006
800002
800002
800002
800002
800002
800002
800002
800002
800002
800002
800002
800002
800002
800002
800002
800002
800002
800002
800002
C00006
7FFFFC
ENDCHAR
STARTCHAR 00B0
ENCODING 176
SWIDTH 360 0
DWIDTH 11 0
BBX 8 8 2 13
BITMAP
3C
42
81
81
81
81
42
3C
ENDCHAR
STARTCHAR 00B1
ENCODING 177
SWIDTH 818 0
DWIDTH 25 0
BBX 23 23 0 0
BITMAP
7FFFFC
C00006
800002
800002
800002
800002
800002
800002
800002
800002
800002
800002
800002
800002
800002
800002
800002
800002
800002
800002
800002
C00006
7FFFFC
ENDCHAR
STARTCHAR 00B2
ENCODING 178
SWIDTH 818 0
DWIDTH 25 0
BBX 23 22 0 0
BITMAP
7FFFFC
C00006
800002
800002
800002
800002
800002
800002
800002
800002
800002
800002
800002
800002
800002
800002
800002
800002
800002
800002
C00006
7FFFFC
ENDCHAR
STARTCHAR 00B3
ENCODING 179
SWIDTH 818 0
DWIDTH 25 0
BBX 23 22 0 0
BITMAP
7FFFFC
C00006
800002
800002
800002
800002
800002
800002
800002
800002
800002
800002
800002
800002
800002
800002
800002
800002
800002
800002
C00006
7FFFFC
ENDCHAR
STARTCHAR 00B4
ENCODING 180
SWIDTH 294 0
DWIDTH 9 0
BBX 7 4 1 22
BITMAP
18
3E
F0
40
ENDCHAR
STARTCHAR 00B5
ENCODING 181
SWIDTH 294 0
DWIDTH 9 0
BBX 7 20 1 -4
BITMAP
C6
C6
C6
C6
C6
C6
C6
C6
C6
C6
C6
C6
C6
EE
FE
FE
C0
C0
C0
C0
ENDCHAR
STARTCHAR 00B6
ENCODING 182
SWIDTH 523 0
DWIDTH 16 0
BBX 13 21 2 0
BITMAP
0FF8
3E20
7E20
7E20
FE20
FE20
FE20
7E20
7E20
1E20
0220
0220
0220
0220
0220
0220
0220
0220
0220
0220
0220
ENDCHAR
STARTCHAR 00B7
ENCODING 183
SWIDTH 130 0
DWIDTH 4 0
BBX 2 2 1 9
BITMAP
C0
C0
ENDCHAR
STARTCHAR 00B8
ENCODING 184
SWIDTH 294 0
DWIDTH 9 0
BBX 7 7 1 -5
BITMAP
0C
0E
06
C6
EE
7E
3C
ENDCHAR
STARTCHAR 00B9
ENCODING 185
SWIDTH 818 0
DWIDTH 25 0
BBX 23 22 0 0
BITMAP
7FFFFC
C00006
800002
800002
800002
800002
800002
800002
800002
800002
800002
800002
800002
800002
800002
800002
800002
800002
800002
800002
C00006
7FFFFC
ENDCHAR
STARTCHAR 00BA
ENCODING 186
SWIDTH 818 0
DWIDTH 25 0
BBX 23 22 0 0
BITMAP
7FFFFC
C00006
800002
800002
800002
800002
800002
800002
800002
800002
800002
800002
800002
800002
800002
800002
800002
800002
800002
800002
C00006
7FFFFC
ENDCHAR
STARTCHAR 00BB
ENCODING 187
SWIDTH 425 0
DWIDTH 13 0
BBX 12 15 1 3
BITMAP
E600
6700
7300
3B80
19C0
1CC0
0EE0
0670
0EE0
1CC0
19C0
3B80
7300
6700
E600
ENDCHAR
STARTCHAR 00BC
ENCODING 188
SWIDTH 818 0
DWIDTH 25 0
BBX 23 23 0 0
BITMAP
7FFFFC
C00006
800002
800002
800002
800002
800002
800002
800002
800002
800002
800002
800002
800002
800002
800002
800002
800002
800002
800002
800002
C00006
7FFFFC
ENDCHAR
STARTCHAR 00BD
ENCODING 189
SWIDTH 818 0
DWIDTH 25 0
BBX 23 23 0 0
BITMAP
7FFFFC
C00006
800002
800002
800002
800002
800002
800002
800002
800002
800002
800002
800002
800002
800002
800002
800002
800002
800002
800002
800002
C00006
7FFFFC
ENDCHAR
STARTCHAR 00BE
ENCODING 190
SWIDTH 818 0
DWIDTH 25 0
BBX 23 23 0 0
BITMAP
7FFFFC
C00006
800002
800002
800002
800002
800002
800002
800002
800002
800002
800002
800002
800002
800002
800002
800002
800002
800002
800002
800002
C00006
7FFFFC
ENDCHAR
STARTCHAR 00BF
ENCODING 191
SWIDTH 294 0
DWIDTH 9 0
BBX 7 20 1 0
BITMAP
18
18
00
00
18
18
38
30
70
60
E0
E0
C0
C0
C0
C6
C6
EE
FE
7C
ENDCHAR
STARTCHAR 00C0
ENCODING 192
SWIDTH 294 0
DWIDTH 9 0
BBX 9 26 0 0
BITMAP
1000
7C00
1E00
0300
0000
0000
1C00
1C00
1C00
1C00
3E00
3E00
3E00
3E00
3600
3600
3600
7600
7700
7F00
7F00
7700
6300
6300
6300
E380
ENDCHAR
STARTCHAR 00C1
ENCODING 193
SWIDTH 294 0
DWIDTH 9 0
BBX 9 26 0 0
BITMAP
0400
1F00
3C00
6000
0000
0000
1C00
1C00
1C00
1C00
3E00
3E00
3E00
3E00
3600
3600
3600
7600
7700
7F00
7F00
7700
6300
6300
6300
E380
ENDCHAR
STARTCHAR 00C2
ENCODING 194
SWIDTH 294 0
DWIDTH 9 0
BBX 9 26 0 0
BITMAP
1C00
3C00
3600
6300
0000
0000
1C00
1C00
1C00
1C00
3E00
3E00
3E00
3E00
3600
3600
3600
7600
7700
7F00
7F00
7700
6300
6300
6300
E380
ENDCHAR
STARTCHAR 00C3
ENCODING 195
SWIDTH 327 0
DWIDTH 10 0
BBX 8 25 1 0
BITMAP
7B
FF
CE
00
00
3C
3C
3C
3C
3C
3C
3C
3C
7E
7E
7E
7E
66
7E
7E
66
E7
E7
E7
E7
ENDCHAR
STARTCHAR 00C4
ENCODING 196
SWIDTH 261 0
DWIDTH 8 0
BBX 8 24 0 0
BITMAP
66
66
00
00
3C
3C
3C
3C
3C
3C
3C
7C
7E
7E
7E
7E
66
7E
7E
E7
E7
E7
E7
E7
ENDCHAR
STARTCHAR 00C5
ENCODING 197
SWIDTH 294 0
DWIDTH 9 0
BBX 7 27 1 0
BITMAP
38
7C
6C
7C
38
00
00
38
38
38
38
78
7C
7C
7C
6C
6C
6C
6C
EE
FE
FE
EE
C6
C6
C6
C6
ENDCHAR
STARTCHAR 00C6
ENCODING 198
SWIDTH 458 0
DWIDTH 14 0
BBX 13 20 0 0
BITMAP
1FF8
1FF8
3F00
3F00
3F00
3F00
3F00
3F00
3F00
3FF0
77F0
7700
7700
7F00
7F00
6700
6700
E700
E3F8
E3F8
ENDCHAR
STARTCHAR 00C7
ENCODING 199
SWIDTH 294 0
DWIDTH 9 0
BBX 7 25 1 -5
BITMAP
7C
FE
E6
C6
C6
C0
C0
C0
C0
C0
C0
C0
C0
C0
C0
C6
C6
C6
FE
7E
06
C6
EE
7E
3C
ENDCHAR
STARTCHAR 00C8
ENCODING 200
SWIDTH 294 0
DWIDTH 9 0
BBX 8 26 1 0
BITMAP
30
F8
1E
06
00
00
FF
FF
C0
C0
C0
C0
C0
C0
C0
FC
FC
C0
C0
C0
C0
C0
C0
C0
FF
FF
ENDCHAR
STARTCHAR 00C9
ENCODING 201
SWIDTH 294 0
DWIDTH 9 0
BBX 8 26 1 0
BITMAP
08
3E
78
C0
00
00
FF
FF
C0
C0
C0
C0
C0
C0
C0
FC
FC
C0
C0
C0
C0
C0
C0
C0
FF
FF
ENDCHAR
STARTCHAR 00CA
ENCODING 202
SWIDTH 294 0
DWIDTH 9 0
BBX 8 26 1 0
BITMAP
18
3C
6E
C7
00
00
FF
FF
C0
C0
C0
C0
C0
C0
C0
FC
FC
C0
C0
C0
C0
C0
C0
C0
FF
FF
ENDCHAR
STARTCHAR 00CB
ENCODING 203
SWIDTH 294 0
DWIDTH 9 0
BBX 8 24 1 0
BITMAP
66
66
00
00
FF
FF
C0
C0
C0
C0
C0
C0
C0
FC
FC
C0
C0
C0
C0
C0
C0
C0
FF
FF
ENDCHAR
STARTCHAR 00CC
ENCODING 204
SWIDTH 130 0
DWIDTH 4 0
BBX 7 26 -2 0
BITMAP
30
FC
1E
02
00
00
18
18
18
18
18
18
18
18
18
18
18
18
18
18
18
18
18
18
18
18
ENDCHAR
STARTCHAR 00CD
ENCODING 205
SWIDTH 130 0
DWIDTH 4 0
BBX 7 26 -1 0
BITMAP
18
3E
F0
C0
00
00
30
30
30
30
30
30
30
30
30
30
30
30
30
30
30
30
30
30
30
30
ENDCHAR
STARTCHAR 00CE
ENCODING 206
SWIDTH 130 0
DWIDTH 4 0
BBX 8 26 -2 0
BITMAP
18
3C
76
E3
00
00
18
18
18
18
18
18
18
18
18
18
18
18
18
18
18
18
18
18
18
18
ENDCHAR
STARTCHAR 00CF
ENCODING 207
SWIDTH 130 0
DWIDTH 4 0
BBX 6 24 -1 0
BITMAP
CC
CC
00
00
30
30
30
30
30
30
30
30
30
30
30
30
30
30
30
30
30
30
30
30
ENDCHAR
STARTCHAR 00D0
ENCODING 208
SWIDTH 327 0
DWIDTH 10 0
BBX 9 20 1 0
BITMAP
3F00
3F80
3380
3180
3180
3180
3180
3180
3180
F980
F980
3180
3180
3180
3180
3180
3180
3380
3F80
3F00
ENDCHAR
STARTCHAR 00D1
ENCODING 209
SWIDTH 327 0
DWIDTH 10 0
BBX 8 25 1 0
BITMAP
7B
FF
CE
00
00
E3
E3
E3
F3
F3
F3
F3
F3
DB
DB
DB
DB
CF
CF
CF
CF
C7
C7
C7
C7
ENDCHAR
STARTCHAR 00D2
ENCODING 210
SWIDTH 294 0
DWIDTH 9 0
BBX 7 25 1 1
BITMAP
78
FC
0E
00
00
7C
FE
E6
C6
C6
C6
C6
C6
C6
C6
C6
C6
C6
C6
C6
C6
C6
C6
FE
7C
ENDCHAR
STARTCHAR 00D3
ENCODING 211
SWIDTH 294 0
DWIDTH 9 0
BBX 7 26 1 0
BITMAP
08
1C
7E
E0
00
00
7C
FE
E6
C6
C6
C6
C6
C6
C6
C6
C6
C6
C6
C6
C6
C6
C6
C6
FE
7C
ENDCHAR
STARTCHAR 00D4
ENCODING 212
SWIDTH 294 0
DWIDTH 9 0
BBX 7 26 1 0
BITMAP
18
3C
6C
C6
00
00
7C
FE
E6
C6
C6
C6
C6
C6
C6
C6
C6
C6
C6
C6
C6
C6
C6
C6
FE
7C
ENDCHAR
STARTCHAR 00D5
ENCODING 213
SWIDTH 327 0
DWIDTH 10 0
BBX 8 26 1 0
BITMAP
77
FF
DE
00
00
00
7C
FE
E6
C6
C6
C6
C6
C6
C6
C6
C6
C6
C6
C6
C6
C6
C6
C6
FE
7C
ENDCHAR
STARTCHAR 00D6
ENCODING 214
SWIDTH 294 0
DWIDTH 9 0
BBX 7 25 1 0
BITMAP
66
66
00
00
00
7C
FE
E6
C6
C6
C6
C6
C6
C6
C6
C6
C6
C6
C6
C6
C6
C6
C6
FE
7C
ENDCHAR
STARTCHAR 00D7
ENCODING 215
SWIDTH 294 0
DWIDTH 9 0
BBX 7 16 1 2
BITMAP
C6
E6
6E
6C
6C
3C
38
38
38
38
3C
6C
6C
6E
C6
C6
ENDCHAR
STARTCHAR 00D8
ENCODING 216
SWIDTH 294 0
DWIDTH 9 0
BBX 7 20 1 0
BITMAP
7E
FE
E6
CE
CE
CE
CE
DE
DE
DE
FE
F6
F6
F6
E6
E6
E6
E6
FE
FC
ENDCHAR
STARTCHAR 00D9
ENCODING 217
SWIDTH 294 0
DWIDTH 9 0
BBX 7 26 1 0
BITMAP
30
F8
3C
06
00
00
C6
C6
C6
C6
C6
C6
C6
C6
C6
C6
C6
C6
C6
C6
C6
C6
C6
E6
FE
7C
ENDCHAR
STARTCHAR 00DA
ENCODING 218
SWIDTH 294 0
DWIDTH 9 0
BBX 7 26 1 0
BITMAP
08
3E
78
C0
00
00
C6
C6
C6
C6
C6
C6
C6
C6
C6
C6
C6
C6
C6
C6
C6
C6
C6
E6
FE
7C
ENDCHAR
STARTCHAR 00DB
ENCODING 219
SWIDTH 294 0
DWIDTH 9 0
BBX 7 26 1 0
BITMAP
18
3C
6C
C6
00
00
C6
C6
C6
C6
C6
C6
C6
C6
C6
C6
C6
C6
C6
C6
C6
C6
C6
E6
FE
7C
ENDCHAR
STARTCHAR 00DC
ENCODING 220
SWIDTH 294 0
DWIDTH 9 0
BBX 7 25 1 0
BITMAP
66
66
00
00
00
C6
C6
C6
C6
C6
C6
C6
C6
C6
C6
C6
C6
C6
C6
C6
C6
C6
E6
FE
7C
ENDCHAR
STARTCHAR 00DD
ENCODING 221
SWIDTH 294 0
DWIDTH 9 0
BBX 8 26 0 0
BITMAP
0C
1F
78
60
00
00
E7
E7
67
76
7E
3E
3C
3C
3C
1C
18
18
18
18
18
18
18
18
18
18
ENDCHAR
STARTCHAR 00DE
ENCODING 222
SWIDTH 294 0
DWIDTH 9 0
BBX 7 20 1 0
BITMAP
C0
C0
C0
C0
FC
FE
C6
C6
C6
C6
C6
C6
C6
C6
FE
FC
C0
C0
C0
C0
ENDCHAR
STARTCHAR 00DF
ENCODING 223
SWIDTH 294 0
DWIDTH 9 0
BBX 7 20 1 0
BITMAP
7C
FE
C6
C6
C6
C6
C6
C6
DE
DC
C6
C6
C6
C6
C6
C6
C6
C6
DE
DC
ENDCHAR
STARTCHAR 00E0
ENCODING 224
SWIDTH 294 0
DWIDTH 9 0
BBX 7 22 1 0
BITMAP
20
F0
7C
0E
00
00
7C
FE
EE
C6
C6
0E
7E
7E
E6
C6
C6
C6
C6
EE
FE
7E
ENDCHAR
STARTCHAR 00E1
ENCODING 225
SWIDTH 294 0
DWIDTH 9 0
BBX 7 22 1 0
BITMAP
08
1E
7C
E0
00
00
7C
FE
EE
C6
C6
0E
7E
7E
E6
C6
C6
C6
C6
EE
FE
7E
ENDCHAR
STARTCHAR 00E2
ENCODING 226
SWIDTH 294 0
DWIDTH 9 0
BBX 7 21 1 0
BITMAP
38
6C
C6
00
00
7C
FE
EE
C6
C6
0E
7E
7E
E6
C6
C6
C6
C6
EE
FE
7E
ENDCHAR
STARTCHAR 00E3
ENCODING 227
SWIDTH 294 0
DWIDTH 9 0
BBX 7 21 1 0
BITMAP
76
FE
DC
00
00
7C
FE
EE
C6
C6
0E
7E
7E
E6
C6
C6
C6
C6
EE
FE
7E
ENDCHAR
STARTCHAR 00E4
ENCODING 228
SWIDTH 294 0
DWIDTH 9 0
BBX 7 20 1 0
BITMAP
CC
CC
00
00
7C
FE
EE
C6
C6
0E
7E
7E
E6
C6
C6
C6
C6
EE
FE
7E
ENDCHAR
STARTCHAR 00E5
ENCODING 229
SWIDTH 294 0
DWIDTH 9 0
BBX 7 23 1 0
BITMAP
38
7C
7C
7C
38
00
00
7C
FE
EE
C6
C6
0E
7E
7E
E6
C6
C6
C6
C6
EE
FE
7E
ENDCHAR
STARTCHAR 00E6
ENCODING 230
SWIDTH 425 0
DWIDTH 13 0
BBX 12 16 1 0
BITMAP
7FC0
FFE0
EE70
C630
C630
0E30
7E30
7FF0
E7F0
C600
C630
C630
C630
EE70
FFE0
7FC0
ENDCHAR
STARTCHAR 00E7
ENCODING 231
SWIDTH 294 0
DWIDTH 9 0
BBX 7 21 1 -5
BITMAP
7C
FE
EE
C6
C6
C0
C0
C0
C0
C0
C0
C6
C6
EE
FC
7E
06
C6
EE
7E
3C
ENDCHAR
STARTCHAR 00E8
ENCODING 232
SWIDTH 294 0
DWIDTH 9 0
BBX 7 22 1 0
BITMAP
20
F0
7C
0E
00
00
7C
FE
EE
C6
C6
C6
C6
FE
FE
C0
C6
C6
C6
EE
FE
7C
ENDCHAR
STARTCHAR 00E9
ENCODING 233
SWIDTH 294 0
DWIDTH 9 0
BBX 7 22 1 0
BITMAP
08
1E
7C
E0
00
00
7C
FE
EE
C6
C6
C6
C6
FE
FE
C0
C6
C6
C6
EE
FE
7C
ENDCHAR
STARTCHAR 00EA
ENCODING 234
SWIDTH 294 0
DWIDTH 9 0
BBX 7 21 1 0
BITMAP
38
6C
C6
00
00
7C
FE
EE
C6
C6
C6
C6
FE
FE
C0
C6
C6
C6
EE
FE
7C
ENDCHAR
STARTCHAR 00EB
ENCODING 235
SWIDTH 294 0
DWIDTH 9 0
BBX 7 20 1 0
BITMAP
CC
CC
00
00
7C
FE
EE
C6
C6
C6
C6
FE
FE
C0
C6
C6
C6
EE
FE
7C
ENDCHAR
STARTCHAR 00EC
ENCODING 236
SWIDTH 130 0
DWIDTH 4 0
BBX 7 22 -2 0
BITMAP
30
FC
1E
02
00
00
18
18
18
18
18
18
18
18
18
18
18
18
18
18
18
18
ENDCHAR
STARTCHAR 00ED
ENCODING 237
SWIDTH 130 0
DWIDTH 4 0
BBX 7 22 -1 0
BITMAP
18
3E
F0
C0
00
00
30
30
30
30
30
30
30
30
30
30
30
30
30
30
30
30
ENDCHAR
STARTCHAR 00EE
ENCODING 238
SWIDTH 130 0
DWIDTH 4 0
BBX 6 21 -1 0
BITMAP
38
7C
CC
00
00
30
30
30
30
30
30
30
30
30
30
30
30
30
30
30
30
ENDCHAR
STARTCHAR 00EF
ENCODING 239
SWIDTH 130 0
DWIDTH 4 0
BBX 6 20 -1 0
BITMAP
CC
CC
00
00
30
30
30
30
30
30
30
30
30
30
30
30
30
30
30
30
ENDCHAR
STARTCHAR 00F0
ENCODING 240
SWIDTH 327 0
DWIDTH 10 0
BBX 8 20 1 0
BITMAP
18
1C
0C
0C
7F
FF
CC
CC
CC
CC
CC
CC
CC
CC
CC
CC
CC
CC
FC
7C
ENDCHAR
STARTCHAR 00F1
ENCODING 241
SWIDTH 294 0
DWIDTH 9 0
BBX 7 21 1 0
BITMAP
76
FE
DC
00
00
FC
FC
EE
C6
C6
C6
C6
C6
C6
C6
C6
C6
C6
C6
C6
C6
ENDCHAR
STARTCHAR 00F2
ENCODING 242
SWIDTH 294 0
DWIDTH 9 0
BBX 7 22 1 0
BITMAP
20
F0
7C
0E
00
00
7C
FE
EE
C6
C6
C6
C6
C6
C6
C6
C6
C6
C6
EE
FE
7C
ENDCHAR
STARTCHAR 00F3
ENCODING 243
SWIDTH 294 0
DWIDTH 9 0
BBX 7 22 1 0
BITMAP
08
1E
7C
E0
00
00
7C
FE
EE
C6
C6
C6
C6
C6
C6
C6
C6
C6
C6
EE
FE
7C
ENDCHAR
STARTCHAR 00F4
ENCODING 244
SWIDTH 294 0
DWIDTH 9 0
BBX 7 21 1 0
BITMAP
38
6C
C6
00
00
7C
FE
EE
C6
C6
C6
C6
C6
C6
C6
C6
C6
C6
EE
FE
7C
ENDCHAR
STARTCHAR 00F5
ENCODING 245
SWIDTH 294 0
DWIDTH 9 0
BBX 7 21 1 0
BITMAP
76
FE
DC
00
00
7C
FE
EE
C6
C6
C6
C6
C6
C6
C6
C6
C6
C6
EE
FE
7C
ENDCHAR
STARTCHAR 00F6
ENCODING 246
SWIDTH 294 0
DWIDTH 9 0
BBX 7 20 1 0
BITMAP
CC
CC
00
00
7C
FE
EE
C6
C6
C6
C6
C6
C6
C6
C6
C6
C6
EE
FE
7C
ENDCHAR
STARTCHAR 00F7
ENCODING 247
SWIDTH 294 0
DWIDTH 9 0
BBX 7 11 1 5
BITMAP
30
30
00
00
00
FE
FE
00
00
30
30
ENDCHAR
STARTCHAR 00F8
ENCODING 248
SWIDTH 294 0
DWIDTH 9 0
BBX 7 16 1 0
BITMAP
7E
FE
EE
CE
DE
DE
DE
FE
FE
F6
F6
F6
E6
EE
FE
FC
ENDCHAR
STARTCHAR 00F9
ENCODING 249
SWIDTH 294 0
DWIDTH 9 0
BBX 7 22 1 0
BITMAP
20
F8
3E
04
00
00
C6
C6
C6
C6
C6
C6
C6
C6
C6
C6
C6
C6
C6
EE
FE
76
ENDCHAR
STARTCHAR 00FA
ENCODING 250
SWIDTH 294 0
DWIDTH 9 0
BBX 7 22 1 0
BITMAP
08
3E
F8
40
00
00
C6
C6
C6
C6
C6
C6
C6
C6
C6
C6
C6
C6
C6
EE
FE
76
ENDCHAR
STARTCHAR 00FB
ENCODING 251
SWIDTH 294 0
DWIDTH 9 0
BBX 7 21 1 0
BITMAP
38
6C
C6
00
00
C6
C6
C6
C6
C6
C6
C6
C6
C6
C6
C6
C6
C6
EE
FE
76
ENDCHAR
STARTCHAR 00FC
ENCODING 252
SWIDTH 294 0
DWIDTH 9 0
BBX 7 20 1 0
BITMAP
CC
CC
00
00
C6
C6
C6
C6
C6
C6
C6
C6
C6
C6
C6
C6
C6
EE
FE
76
ENDCHAR
STARTCHAR 00FD
ENCODING 253
SWIDTH 294 0
DWIDTH 9 0
BBX 7 26 1 -4
BITMAP
18
3E
F0
40
00
00
C6
C6
E6
66
6E
6E
6C
6C
6C
3C
3C
3C
38
38
38
38
38
30
F0
F0
ENDCHAR
STARTCHAR 00FE
ENCODING 254
SWIDTH 294 0
DWIDTH 9 0
BBX 7 24 1 -4
BITMAP
C0
C0
C0
C0
DC
FE
EE
C6
C6
C6
C6
C6
C6
C6
C6
C6
C6
EE
FE
DC
C0
C0
C0
C0
ENDCHAR
STARTCHAR 00FF
ENCODING 255
SWIDTH 261 0
DWIDTH 8 0
BBX 8 24 0 -4
BITMAP
66
66
00
00
63
67
67
66
66
66
36
36
3E
3C
3C
3C
3C
1C
18
18
18
38
F8
F0
ENDCHAR
STARTCHAR 0131
ENCODING 305
SWIDTH 130 0
DWIDTH 4 0
BBX 2 16 1 0
BITMAP
C0
C0
C0
C0
C0
C0
C0
C0
C0
C0
C0
C0
C0
C0
C0
C0
ENDCHAR
STARTCHAR 0152
ENCODING 338
SWIDTH 458 0
DWIDTH 14 0
BBX 13 20 1 0
BITMAP
7FF8
FFF8
E600
C600
C600
C600
C600
C600
C600
C7E0
C7E0
C600
C600
C600
C600
C600
C600
C600
FFF8
7FF8
ENDCHAR
STARTCHAR 0153
ENCODING 339
SWIDTH 458 0
DWIDTH 14 0
BBX 12 16 1 0
BITMAP
7FC0
FFE0
EE70
C630
C630
C630
C630
C7F0
C7F0
C600
C630
C630
C630
EE70
FFE0
7FC0
ENDCHAR
STARTCHAR 02C6
ENCODING 710
SWIDTH 294 0
DWIDTH 9 0
BBX 7 3 1 22
BITMAP
38
6C
C6
ENDCHAR
STARTCHAR 02C7
ENCODING 711
SWIDTH 294 0
DWIDTH 9 0
BBX 7 3 1 22
BITMAP
C6
6C
38
ENDCHAR
STARTCHAR 02C9
ENCODING 713
SWIDTH 523 0
DWIDTH 16 0
BBX 8 2 5 18
BITMAP
FF
FF
ENDCHAR
STARTCHAR 02D8
ENCODING 728
SWIDTH 490 0
DWIDTH 15 0
BBX 9 4 4 16
BITMAP
8080
E300
7F00
3E00
ENDCHAR
STARTCHAR 02D9
ENCODING 729
SWIDTH 490 0
DWIDTH 15 0
BBX 3 3 7 17
BITMAP
E0
E0
40
ENDCHAR
STARTCHAR 02DA
ENCODING 730
SWIDTH 229 0
DWIDTH 7 0
BBX 5 5 1 22
BITMAP
70
F8
D8
F8
70
ENDCHAR
STARTCHAR 02DB
ENCODING 731
SWIDTH 294 0
DWIDTH 9 0
BBX 7 7 1 -5
BITMAP
70
F0
E0
C6
EE
7E
3C
ENDCHAR
STARTCHAR 02DC
ENCODING 732
SWIDTH 327 0
DWIDTH 10 0
BBX 8 3 1 22
BITMAP
7B
FF
CE
ENDCHAR
STARTCHAR 02DD
ENCODING 733
SWIDTH 490 0
DWIDTH 15 0
BBX 9 6 4 16
BITMAP
1000
3980
3300
6600
4600
8C00
ENDCHAR
STARTCHAR 037E
ENCODING 894
SWIDTH 130 0
DWIDTH 4 0
BBX 3 13 1 -1
BITMAP
60
60
60
00
00
00
00
00
00
00
E0
C0
C0
ENDCHAR
STARTCHAR 2013
ENCODING 8211
SWIDTH 294 0
DWIDTH 9 0
BBX 7 2 1 9
BITMAP
FE
FE
ENDCHAR
STARTCHAR 2014
ENCODING 8212
SWIDTH 360 0
DWIDTH 11 0
BBX 9 2 1 9
BITMAP
FF80
FF80
ENDCHAR
STARTCHAR 2018
ENCODING 8216
SWIDTH 130 0
DWIDTH 4 0
BBX 3 4 1 18
BITMAP
C0
C0
60
60
ENDCHAR
STARTCHAR 2019
ENCODING 8217
SWIDTH 130 0
DWIDTH 4 0
BBX 3 4 1 18
BITMAP
60
C0
C0
C0
ENDCHAR
STARTCHAR 201A
ENCODING 8218
SWIDTH 130 0
DWIDTH 4 0
BBX 3 4 1 -1
BITMAP
60
C0
C0
C0
ENDCHAR
STARTCHAR 201C
ENCODING 8220
SWIDTH 261 0
DWIDTH 8 0
BBX 6 4 1 18
BITMAP
D8
D8
6C
6C
ENDCHAR
STARTCHAR 201D
ENCODING 8221
SWIDTH 261 0
DWIDTH 8 0
BBX 6 4 1 18
BITMAP
6C
DC
D8
D8
ENDCHAR
STARTCHAR 201E
ENCODING 8222
SWIDTH 229 0
DWIDTH 7 0
BBX 6 4 1 -2
BITMAP
6C
DC
D8
D8
ENDCHAR
STARTCHAR 2020
ENCODING 8224
SWIDTH 490 0
DWIDTH 15 0
BBX 12 25 2 -3
BITMAP
0F00
0F00
0700
0600
C630
FAF0
FFF0
C230
0200
0700
0F00
0F00
0700
0700
0700
0600
0600
0600
0200
0200
0200
0200
0200
0200
0200
ENDCHAR
STARTCHAR 2021
ENCODING 8225
SWIDTH 490 0
DWIDTH 15 0
BBX 12 25 2 -3
BITMAP
0F00
0F00
0E00
0600
C470
F5F0
FFF0
C470
0400
0400
0600
0E00
0F00
0E00
0600
0400
0400
C470
F5F0
FFF0
C470
0600
0E00
0F00
0F00
ENDCHAR
STARTCHAR 2022
ENCODING 8226
SWIDTH 490 0
DWIDTH 15 0
BBX 9 9 4 6
BITMAP
3E00
7F00
FF80
FF80
FF80
FF80
FF80
7F00
3E00
ENDCHAR
STARTCHAR 2026
ENCODING 8230
SWIDTH 392 0
DWIDTH 12 0
BBX 10 2 1 0
BITMAP
CCC0
CCC0
ENDCHAR
STARTCHAR 2030
ENCODING 8240
SWIDTH 556 0
DWIDTH 17 0
BBX 16 20 1 0
BITMAP
7C70
FE60
EEE0
C6C0
C7C0
C780
C780
FF00
7F00
0600
0FFE
0FFF
1F73
1E33
3E33
3633
3633
7773
67FF
E3DE
ENDCHAR
STARTCHAR 2039
ENCODING 8249
SWIDTH 294 0
DWIDTH 9 0
BBX 7 15 1 3
BITMAP
0E
0C
1C
38
30
70
E0
C0
E0
70
30
38
1C
0C
0E
ENDCHAR
STARTCHAR 203A
ENCODING 8250
SWIDTH 294 0
DWIDTH 9 0
BBX 7 15 1 3
BITMAP
E0
60
70
38
18
1C
0E
06
0E
1C
18
38
70
60
E0
ENDCHAR
STARTCHAR 2044
ENCODING 8260
SWIDTH 261 0
DWIDTH 8 0
BBX 6 20 1 0
BITMAP
0C
0C
0C
1C
18
18
18
18
38
30
30
30
70
60
60
60
60
E0
C0
C0
ENDCHAR
STARTCHAR 20A3
ENCODING 8355
SWIDTH 360 0
DWIDTH 11 0
BBX 9 20 1 0
BITMAP
3F80
3F80
3000
3000
3000
3000
3000
3000
3000
3F00
3F00
3000
3000
3000
3000
3000
F800
F800
3000
3000
ENDCHAR
STARTCHAR 20A4
ENCODING 8356
SWIDTH 294 0
DWIDTH 9 0
BBX 7 20 1 0
BITMAP
1E
3E
30
30
30
30
30
30
30
F8
F8
30
30
30
30
30
30
70
FE
FE
ENDCHAR
STARTCHAR 20A7
ENCODING 8359
SWIDTH 360 0
DWIDTH 11 0
BBX 9 20 1 0
BITMAP
3F00
3F80
3380
3180
3180
3180
3180
3180
3180
3380
3F80
3F00
3000
3000
3000
3000
F800
F800
3000
3000
ENDCHAR
STARTCHAR 20AC
ENCODING 8364
SWIDTH 360 0
DWIDTH 11 0
BBX 9 20 1 0
BITMAP
1F00
3F80
3180
3180
3180
3000
FE00
FE00
3000
3000
3000
FE00
FE00
3000
3180
3180
3180
3180
3F80
1F00
ENDCHAR
STARTCHAR 2116
ENCODING 8470
SWIDTH 327 0
DWIDTH 10 0
BBX 8 10 1 10
BITMAP
97
D5
D5
D5
D5
B5
B5
B5
B5
97
ENDCHAR
STARTCHAR 2122
ENCODING 8482
SWIDTH 392 0
DWIDTH 12 0
BBX 10 10 1 10
BITMAP
ECC0
4CC0
4CC0
4CC0
4EC0
4BC0
4B40
4B40
4B40
4B40
ENDCHAR
STARTCHAR 2202
ENCODING 8706
SWIDTH 818 0
DWIDTH 25 0
BBX 23 23 0 0
BITMAP
3FFFF0
C00004
800002
800002
800002
800002
800002
800002
800002
800002
800002
800002
800002
800002
800002
800002
800002
800002
800002
800002
800002
800004
7FFFFC
ENDCHAR
STARTCHAR 2206
ENCODING 8710
SWIDTH 818 0
DWIDTH 25 0
BBX 23 23 0 0
BITMAP
3FFFF0
C00004
800002
800002
800002
800002
800002
800002
800002
800002
800002
800002
800002
800002
800002
800002
800002
800002
800002
800002
800002
800004
7FFFFC
ENDCHAR
STARTCHAR 220F
ENCODING 8719
SWIDTH 818 0
DWIDTH 25 0
BBX 23 23 0 0
BITMAP
3FFFF0
C00004
800002
800002
800002
800002
800002
800002
800002
800002
800002
800002
800002
800002
800002
800002
800002
800002
800002
800002
800002
800004
7FFFFC
ENDCHAR
STARTCHAR 2211
ENCODING 8721
SWIDTH 818 0
DWIDTH 25 0
BBX 23 23 0 0
BITMAP
3FFFF0
C00004
800002
800002
800002
800002
800002
800002
800002
800002
800002
800002
800002
800002
800002
800002
800002
800002
800002
800002
800002
800004
7FFFFC
ENDCHAR
STARTCHAR 2212
ENCODING 8722
SWIDTH 261 0
DWIDTH 8 0
BBX 7 2 1 9
BITMAP
FE
FE
ENDCHAR
STARTCHAR 2215
ENCODING 8725
SWIDTH 261 0
DWIDTH 8 0
BBX 6 20 1 0
BITMAP
0C
0C
0C
1C
18
18
18
18
38
30
30
30
70
60
60
60
60
E0
C0
C0
ENDCHAR
STARTCHAR 2219
ENCODING 8729
SWIDTH 130 0
DWIDTH 4 0
BBX 2 2 1 9
BITMAP
C0
C0
ENDCHAR
STARTCHAR 2248
ENCODING 8776
SWIDTH 818 0
DWIDTH 25 0
BBX 23 23 0 0
BITMAP
3FFFF0
C00004
800002
800002
800002
800002
800002
800002
800002
800002
800002
800002
800002
800002
800002
800002
800002
800002
800002
800002
800002
800004
7FFFFC
ENDCHAR
STARTCHAR 2264
ENCODING 8804
SWIDTH 818 0
DWIDTH 25 0
BBX 23 23 0 0
BITMAP
3FFFF0
C00004
800002
800002
800002
800002
800002
800002
800002
800002
800002
800002
800002
800002
800002
800002
800002
800002
800002
800002
800002
800004
7FFFFC
ENDCHAR
STARTCHAR 2265
ENCODING 8805
SWIDTH 818 0
DWIDTH 25 0
BBX 23 23 0 0
BITMAP
3FFFF0
C00004
800002
800002
800002
800002
800002
800002
800002
800002
800002
800002
800002
800002
800002
800002
800002
800002
800002
800002
800002
800004
7FFFFC
ENDCHAR
STARTCHAR F001
ENCODING 61441
SWIDTH 523 0
DWIDTH 16 0
BBX 0 0 0 0
BITMAP
ENDCHAR
STARTCHAR F002
ENCODING 61442
SWIDTH 523 0
DWIDTH 16 0
BBX 0 0 0 0
BITMAP
ENDCHAR
STARTCHAR FB01
ENCODING 64257
SWIDTH 523 0
DWIDTH 16 0
BBX 0 0 0 0
BITMAP
ENDCHAR
STARTCHAR FB02
ENCODING 64258
SWIDTH 523 0
DWIDTH 16 0
BBX 0 0 0 0
BITMAP
ENDCHAR
ENDFONT
